<svg version="1.1" id="Layer_1" xmlns="http://www.w3.org/2000/svg" xmlns:xlink="http://www.w3.org/1999/xlink" x="0px" y="0px"
	 width="100%" viewBox="0 0 500 105" enable-background="new 0 0 500 105" xml:space="preserve">
<path fill="#FEFEFE" opacity="1.000000" stroke="none" 
	d="
M371.000000,106.000000 
	C247.384216,106.000000 124.268448,106.000000 1.076335,106.000000 
	C1.076335,71.065491 1.076335,36.130775 1.076335,1.098027 
	C167.666641,1.098027 334.333313,1.098027 500.973114,1.098027 
	C500.973114,36.064777 500.973114,71.032402 500.973114,106.000000 
	C457.797485,106.000000 414.648743,106.000000 371.000000,106.000000 
M278.309235,22.989197 
	C277.856354,22.993540 277.403503,22.997883 276.713898,22.249393 
	C276.684662,21.278824 276.655426,20.308254 277.353577,19.149916 
	C278.309570,18.800665 279.265533,18.451416 280.221527,18.102175 
	C279.919098,17.569382 279.616669,17.036589 279.314240,16.503782 
	C278.576813,16.960987 277.781067,17.349396 277.126465,17.904291 
	C276.797089,18.183527 276.723938,18.765047 275.806244,19.381641 
	C270.128448,16.001938 264.809418,16.971527 263.968811,21.632774 
	C263.434570,24.595188 263.853485,27.346609 267.175140,28.637163 
	C271.360413,30.263268 274.623383,28.706301 277.559143,23.962675 
	C278.044312,23.645559 278.529480,23.328442 279.290619,22.894735 
	C279.189911,22.924932 279.089233,22.955128 278.309235,22.989197 
M99.887672,62.824314 
	C101.407303,60.747334 102.219429,58.839027 98.393578,57.158424 
	C98.496155,55.452484 98.598732,53.746548 99.418701,51.939564 
	C99.945671,50.564575 100.883766,49.202488 100.927399,47.812332 
	C101.102654,42.228237 101.000984,36.635448 101.746956,30.883846 
	C102.498489,30.972467 103.250031,31.061089 104.128922,31.826021 
	C105.105011,33.094109 106.081093,34.362198 107.536812,36.253414 
	C107.820442,34.320854 107.975403,33.265011 108.841034,32.310192 
	C109.225578,32.591518 109.610123,32.872849 110.081955,33.723160 
	C110.410316,34.013756 110.738678,34.304352 111.067039,34.594952 
	C111.378815,34.098038 111.690590,33.601120 112.435959,32.582458 
	C114.497055,30.100723 116.558151,27.618986 119.344986,24.263395 
	C114.465797,22.374386 110.627480,20.477314 106.571892,19.392651 
	C92.479805,15.623738 75.652336,22.365116 69.356758,34.267941 
	C63.041515,46.207947 62.805977,58.683746 68.959991,70.859962 
	C63.925556,71.206802 62.746658,67.827141 61.957134,63.846859 
	C61.687981,62.489948 60.732231,61.269234 59.918880,59.124863 
	C59.970985,57.081600 60.023090,55.038338 60.856049,52.816574 
	C63.076698,46.109276 62.368362,39.523327 59.885021,32.180374 
	C59.933529,30.789000 59.982037,29.397625 60.767670,27.859331 
	C60.603367,25.405077 61.368004,21.897362 60.058090,20.742277 
	C58.069164,18.988441 54.650471,18.356701 51.817535,18.298475 
	C50.639915,18.274271 49.406715,20.954657 48.249718,22.946474 
	C48.168858,23.298397 48.087997,23.650322 47.254696,24.136938 
	C46.506508,26.908022 45.109921,29.682449 45.124199,32.449600 
	C45.181087,43.475872 45.357670,54.524475 46.202747,65.509979 
	C46.461967,68.879662 46.665680,73.481140 51.934628,75.075508 
	C52.306522,75.672447 52.678417,76.269379 53.000195,77.616669 
	C53.305626,78.528694 53.380001,79.631889 53.952072,80.323303 
	C59.983562,87.613037 67.711792,90.457329 76.969017,88.448799 
	C80.745499,87.629402 84.380844,86.159439 88.771744,85.074631 
	C89.850197,85.500038 90.928658,85.925446 92.128922,86.959702 
	C93.088211,86.931259 94.047501,86.902809 95.906769,86.793282 
	C104.854515,87.103012 113.051353,85.242264 120.163055,78.879265 
	C118.282310,76.693008 116.575958,75.083755 115.327812,73.174896 
	C113.211334,69.938065 110.907654,69.446724 107.920425,71.399452 
	C105.586090,69.222664 105.464508,71.394821 104.238182,73.137741 
	C103.178764,73.171539 102.119347,73.205338 101.026520,72.436821 
	C100.312767,71.276489 99.599022,70.116165 98.924469,68.105095 
	C99.018448,66.396400 99.112434,64.687706 99.887672,62.824314 
M442.982910,52.859783 
	C442.982910,61.135235 442.982910,69.410683 442.982910,77.743774 
	C447.184143,77.743774 450.914978,77.743774 454.842468,77.743774 
	C454.842468,67.185036 455.191132,56.876907 454.733276,46.604733 
	C454.359863,38.227226 449.569641,34.349964 441.128326,33.753143 
	C435.058350,33.323982 430.320068,35.645866 426.328735,40.223045 
	C422.968018,35.348682 418.428619,33.038681 413.213135,33.857777 
	C408.422729,34.610119 403.844757,36.714981 399.012665,38.275810 
	C398.799713,37.739567 398.155334,36.116707 397.566986,34.634945 
	C394.558990,34.634945 391.936920,34.634945 389.067871,34.634945 
	C389.067871,49.093208 389.067871,63.319489 389.067871,77.732079 
	C392.921356,77.732079 396.639587,77.732079 400.883514,77.732079 
	C400.883514,69.498428 400.679504,61.530407 400.945007,53.578053 
	C401.177002,46.628906 404.220276,43.100094 409.193726,43.116234 
	C413.832306,43.131283 415.841370,46.302460 415.886841,53.904911 
	C415.934326,61.839973 415.897491,69.775543 415.897491,77.685226 
	C420.137268,77.685226 423.860016,77.685226 428.017029,77.685226 
	C428.017029,69.062088 427.806030,60.753239 428.087616,52.461109 
	C428.291931,46.444439 431.656555,42.921684 436.362030,43.144524 
	C442.000275,43.411537 442.683075,47.577255 442.982910,52.859783 
M186.387665,59.505615 
	C184.873535,66.377220 181.768738,68.851913 174.937469,68.632027 
	C168.256958,68.416992 165.008102,65.440842 164.229019,58.579777 
	C163.966995,56.272373 164.055832,53.920704 164.052155,51.589157 
	C164.036194,41.481895 164.045319,31.374590 164.045319,21.273380 
	C159.785141,21.273380 156.043503,21.273380 152.079971,21.273380 
	C152.079971,34.341244 151.804489,47.149338 152.172348,59.938927 
	C152.438110,69.179001 158.499435,76.189438 167.423416,77.833672 
	C171.754166,78.631615 176.407822,78.748566 180.765060,78.124657 
	C192.556259,76.436287 198.665955,69.287262 198.839172,57.436172 
	C198.999893,46.439377 198.885620,35.438370 198.857544,24.439306 
	C198.854736,23.337782 198.610062,22.236872 198.501984,21.338253 
	C194.410202,21.338253 190.668182,21.338253 186.603592,21.338253 
	C186.603592,34.013744 186.603592,46.340370 186.387665,59.505615 
M251.289246,44.527100 
	C250.377151,39.740326 247.820084,36.195484 243.099335,34.729691 
	C235.405960,32.340904 228.407547,33.590916 222.603912,39.847813 
	C221.808517,37.773243 221.182541,36.140545 220.630112,34.699699 
	C217.539154,34.699699 214.791794,34.699699 212.099060,34.699699 
	C212.099060,49.268665 212.099060,63.508518 212.099060,77.632645 
	C216.104095,77.632645 219.810791,77.632645 223.705353,77.632645 
	C223.705353,76.421471 223.695038,75.603615 223.706970,74.786079 
	C223.821213,66.962547 223.603973,59.114761 224.168961,51.323757 
	C224.574707,45.728508 228.643600,42.654819 233.554337,43.121399 
	C237.879654,43.532356 239.842468,46.269615 240.009857,52.164242 
	C240.047668,53.495663 240.019958,54.828983 240.020050,56.161430 
	C240.020538,63.411911 240.020294,70.662392 240.020294,77.637405 
	C244.456940,77.637405 248.190643,77.637405 251.617249,77.637405 
	C251.617249,66.614792 251.617249,55.966873 251.289246,44.527100 
M342.229828,39.753811 
	C335.994629,47.291542 335.618347,55.974926 338.144745,64.763779 
	C342.287231,79.174667 362.660919,83.845474 373.168365,73.042305 
	C380.959747,65.031685 381.136841,48.289833 373.518951,39.895618 
	C366.205811,31.837206 352.036743,31.532942 342.229828,39.753811 
M323.520752,67.107353 
	C320.584503,67.642479 317.668213,68.422691 314.708008,68.664009 
	C307.547455,69.247757 301.825867,65.835381 300.681488,58.817593 
	C299.695801,52.772938 299.707550,46.194965 301.019989,40.236412 
	C302.818726,32.070217 309.254059,28.929628 317.468750,30.832336 
	C320.473877,31.528389 323.365204,32.715694 326.503418,33.742699 
	C327.770874,30.528994 328.963776,27.504343 330.143372,24.513441 
	C316.502167,17.362682 301.640594,19.249195 293.408722,28.992535 
	C284.995209,38.950859 284.605927,59.962585 292.645264,70.201431 
	C299.751831,79.252296 315.458862,81.645668 327.904175,75.537346 
	C327.904175,72.442230 327.904175,69.323349 327.904175,65.942650 
	C326.543091,66.327637 325.452942,66.636002 323.520752,67.107353 
M264.158447,44.548306 
	C264.158447,55.608643 264.158447,66.668983 264.158447,77.713928 
	C268.463715,77.713928 272.188446,77.713928 275.824158,77.713928 
	C275.824158,63.214752 275.824158,49.017628 275.824158,34.755974 
	C271.825928,34.755974 268.117279,34.755974 264.158539,34.755974 
	C264.158539,37.948521 264.158539,40.759457 264.158447,44.548306 
M104.509712,66.142723 
	C104.207130,66.569199 103.904541,66.995667 103.601952,67.422134 
	C104.049751,67.535721 104.497543,67.649307 104.945343,67.762894 
	C104.998901,67.263763 105.052452,66.764626 104.509712,66.142723 
M277.482971,28.588366 
	C277.482971,28.588366 277.415894,28.475992 277.482971,28.588366 
M279.407898,25.482006 
	C279.407898,25.482006 279.523071,25.412077 279.407898,25.482006 
z"/>
<path fill="#070707" opacity="1.000000" stroke="none" 
	d="
M442.984070,52.404594 
	C442.683075,47.577255 442.000275,43.411537 436.362030,43.144524 
	C431.656555,42.921684 428.291931,46.444439 428.087616,52.461109 
	C427.806030,60.753239 428.017029,69.062088 428.017029,77.685226 
	C423.860016,77.685226 420.137268,77.685226 415.897491,77.685226 
	C415.897491,69.775543 415.934326,61.839973 415.886841,53.904911 
	C415.841370,46.302460 413.832306,43.131283 409.193726,43.116234 
	C404.220276,43.100094 401.177002,46.628906 400.945007,53.578053 
	C400.679504,61.530407 400.883514,69.498428 400.883514,77.732079 
	C396.639587,77.732079 392.921356,77.732079 389.067871,77.732079 
	C389.067871,63.319489 389.067871,49.093208 389.067871,34.634945 
	C391.936920,34.634945 394.558990,34.634945 397.566986,34.634945 
	C398.155334,36.116707 398.799713,37.739567 399.012665,38.275810 
	C403.844757,36.714981 408.422729,34.610119 413.213135,33.857777 
	C418.428619,33.038681 422.968018,35.348682 426.328735,40.223045 
	C430.320068,35.645866 435.058350,33.323982 441.128326,33.753143 
	C449.569641,34.349964 454.359863,38.227226 454.733276,46.604733 
	C455.191132,56.876907 454.842468,67.185036 454.842468,77.743774 
	C450.914978,77.743774 447.184143,77.743774 442.982910,77.743774 
	C442.982910,69.410683 442.982910,61.135235 442.984070,52.404594 
z"/>
<path fill="#060606" opacity="1.000000" stroke="none" 
	d="
M186.495636,59.086308 
	C186.603592,46.340370 186.603592,34.013744 186.603592,21.338253 
	C190.668182,21.338253 194.410202,21.338253 198.501984,21.338253 
	C198.610062,22.236872 198.854736,23.337782 198.857544,24.439306 
	C198.885620,35.438370 198.999893,46.439377 198.839172,57.436172 
	C198.665955,69.287262 192.556259,76.436287 180.765060,78.124657 
	C176.407822,78.748566 171.754166,78.631615 167.423416,77.833672 
	C158.499435,76.189438 152.438110,69.179001 152.172348,59.938927 
	C151.804489,47.149338 152.079971,34.341244 152.079971,21.273380 
	C156.043503,21.273380 159.785141,21.273380 164.045319,21.273380 
	C164.045319,31.374590 164.036194,41.481895 164.052155,51.589157 
	C164.055832,53.920704 163.966995,56.272373 164.229019,58.579777 
	C165.008102,65.440842 168.256958,68.416992 174.937469,68.632027 
	C181.768738,68.851913 184.873535,66.377220 186.495636,59.086308 
z"/>
<path fill="#070707" opacity="1.000000" stroke="none" 
	d="
M251.453247,44.923027 
	C251.617249,55.966873 251.617249,66.614792 251.617249,77.637405 
	C248.190643,77.637405 244.456940,77.637405 240.020294,77.637405 
	C240.020294,70.662392 240.020538,63.411911 240.020050,56.161430 
	C240.019958,54.828983 240.047668,53.495663 240.009857,52.164242 
	C239.842468,46.269615 237.879654,43.532356 233.554337,43.121399 
	C228.643600,42.654819 224.574707,45.728508 224.168961,51.323757 
	C223.603973,59.114761 223.821213,66.962547 223.706970,74.786079 
	C223.695038,75.603615 223.705353,76.421471 223.705353,77.632645 
	C219.810791,77.632645 216.104095,77.632645 212.099060,77.632645 
	C212.099060,63.508518 212.099060,49.268665 212.099060,34.699699 
	C214.791794,34.699699 217.539154,34.699699 220.630112,34.699699 
	C221.182541,36.140545 221.808517,37.773243 222.603912,39.847813 
	C228.407547,33.590916 235.405960,32.340904 243.099335,34.729691 
	C247.820084,36.195484 250.377151,39.740326 251.453247,44.923027 
z"/>
<path fill="#080808" opacity="1.000000" stroke="none" 
	d="
M342.483276,39.494209 
	C352.036743,31.532942 366.205811,31.837206 373.518951,39.895618 
	C381.136841,48.289833 380.959747,65.031685 373.168365,73.042305 
	C362.660919,83.845474 342.287231,79.174667 338.144745,64.763779 
	C335.618347,55.974926 335.994629,47.291542 342.483276,39.494209 
M356.049805,43.347446 
	C354.039581,45.109356 350.675934,46.619625 350.292145,48.683926 
	C349.408630,53.435963 349.463226,58.525658 350.107849,63.348576 
	C350.655090,67.442474 353.976929,69.221489 358.206268,69.146500 
	C362.496826,69.070442 365.296600,66.995552 365.967468,62.895775 
	C366.576294,59.174911 366.969208,55.261868 366.496796,51.555988 
	C365.695740,45.272377 363.357758,43.599541 356.049805,43.347446 
z"/>
<path fill="#080808" opacity="1.000000" stroke="none" 
	d="
M323.941772,67.025856 
	C325.452942,66.636002 326.543091,66.327637 327.904175,65.942650 
	C327.904175,69.323349 327.904175,72.442230 327.904175,75.537346 
	C315.458862,81.645668 299.751831,79.252296 292.645264,70.201431 
	C284.605927,59.962585 284.995209,38.950859 293.408722,28.992535 
	C301.640594,19.249195 316.502167,17.362682 330.143372,24.513441 
	C328.963776,27.504343 327.770874,30.528994 326.503418,33.742699 
	C323.365204,32.715694 320.473877,31.528389 317.468750,30.832336 
	C309.254059,28.929628 302.818726,32.070217 301.019989,40.236412 
	C299.707550,46.194965 299.695801,52.772938 300.681488,58.817593 
	C301.825867,65.835381 307.547455,69.247757 314.708008,68.664009 
	C317.668213,68.422691 320.584503,67.642479 323.941772,67.025856 
z"/>
<path fill="#474848" opacity="1.000000" stroke="none" 
	d="
M109.994667,33.154175 
	C109.610123,32.872849 109.225578,32.591518 108.220085,32.102242 
	C106.399948,31.646097 105.200752,31.397903 104.001564,31.149710 
	C103.250031,31.061089 102.498489,30.972467 101.007874,30.859907 
	C99.514359,30.909473 98.759933,30.982979 97.613815,30.979025 
	C93.803650,32.226517 90.385178,33.551472 86.637177,34.973511 
	C84.791695,36.567451 82.938057,37.847691 81.815842,39.597115 
	C75.583679,49.312469 77.078857,58.730373 83.168549,68.215637 
	C82.966400,69.098801 82.896957,69.614685 82.561630,70.313400 
	C79.309677,71.931175 76.323616,73.366127 73.257233,74.497879 
	C72.063072,73.048279 70.949234,71.901878 69.835396,70.755478 
	C62.805977,58.683746 63.041515,46.207947 69.356758,34.267941 
	C75.652336,22.365116 92.479805,15.623738 106.571892,19.392651 
	C110.627480,20.477314 114.465797,22.374386 119.344986,24.263395 
	C116.558151,27.618986 114.497055,30.100723 111.884415,32.821236 
	C110.886795,33.091404 110.440735,33.122791 109.994667,33.154175 
z"/>
<path fill="#080808" opacity="1.000000" stroke="none" 
	d="
M264.158508,44.059349 
	C264.158539,40.759457 264.158539,37.948521 264.158539,34.755974 
	C268.117279,34.755974 271.825928,34.755974 275.824158,34.755974 
	C275.824158,49.017628 275.824158,63.214752 275.824158,77.713928 
	C272.188446,77.713928 268.463715,77.713928 264.158447,77.713928 
	C264.158447,66.668983 264.158447,55.608643 264.158508,44.059349 
z"/>
<path fill="#3CA4CE" opacity="1.000000" stroke="none" 
	d="
M73.337555,74.801086 
	C76.323616,73.366127 79.309677,71.931175 82.894577,70.255661 
	C84.035065,69.401558 84.576721,68.788025 85.134415,68.155190 
	C85.150452,68.135887 85.174042,68.091583 85.465004,67.938492 
	C86.075615,66.800987 86.395264,65.816589 86.758278,64.527283 
	C86.834717,63.813404 86.867775,63.404442 87.202759,62.708073 
	C87.636299,56.144897 88.063469,49.857685 87.820946,43.596409 
	C87.548874,36.572483 87.188782,34.129272 98.168243,33.344799 
	C98.410301,39.889175 98.555809,45.964890 98.701309,52.040607 
	C98.598732,53.746548 98.496155,55.452484 98.378036,57.929413 
	C98.341827,60.066959 98.321144,61.433514 98.164139,63.196785 
	C97.845436,65.490547 97.663063,67.387589 97.408150,69.566986 
	C97.203102,70.213226 97.070595,70.577118 96.684532,71.025101 
	C96.319824,71.427277 96.208664,71.745354 96.072754,72.396179 
	C96.060539,73.172157 96.073090,73.615387 95.964378,74.378052 
	C93.236641,77.509956 90.630165,80.322433 87.672409,83.250710 
	C85.339302,84.063812 83.364700,84.782524 81.374268,85.454323 
	C75.848640,87.319321 70.324974,88.239983 64.892776,84.974106 
	C64.966339,84.420410 64.986755,84.198135 65.472778,83.981560 
	C71.942139,83.638924 77.979034,84.995049 83.801247,81.417625 
	C87.174156,79.345154 88.699867,76.655655 90.960121,73.887634 
	C95.596275,68.209953 96.068489,62.411915 95.967804,56.014233 
	C95.892555,51.233326 95.562477,46.453758 95.237053,41.681007 
	C95.132210,40.143341 94.681023,38.629292 94.388283,37.104435 
	C93.234383,38.531162 91.232307,39.870289 91.074333,41.399876 
	C90.412804,47.804893 90.458710,54.279785 89.928055,60.702850 
	C89.660614,63.939831 89.569420,67.677116 87.913155,70.221123 
	C83.233078,77.409683 74.949623,79.797714 66.681503,76.837051 
	C65.234360,76.318855 64.363487,74.191376 63.589684,72.848099 
	C67.051773,73.670441 69.538490,77.456436 73.337555,74.801086 
z"/>
<path fill="#484A4B" opacity="1.000000" stroke="none" 
	d="
M88.023697,83.134918 
	C90.630165,80.322433 93.236641,77.509956 96.332916,74.377701 
	C98.235123,73.784996 99.647530,73.512070 101.059929,73.239136 
	C102.119347,73.205338 103.178764,73.171539 104.940552,73.076477 
	C106.427780,72.684372 107.212631,72.353523 107.997482,72.022675 
	C110.907654,69.446724 113.211334,69.938065 115.327812,73.174896 
	C116.575958,75.083755 118.282310,76.693008 120.163055,78.879265 
	C113.051353,85.242264 104.854515,87.103012 95.225449,86.611549 
	C93.698448,86.403496 92.852783,86.377174 92.007111,86.350853 
	C90.928658,85.925446 89.850197,85.500038 88.395462,84.721619 
	C88.020691,83.957382 88.022194,83.546143 88.023697,83.134918 
z"/>
<path fill="#3CA4CE" opacity="1.000000" stroke="none" 
	d="
M48.007133,24.002245 
	C48.087997,23.650322 48.168858,23.298397 48.605141,22.529409 
	C56.364807,19.081581 59.266815,20.626675 60.030544,28.006250 
	C59.982037,29.397625 59.933529,30.789000 59.853230,33.049343 
	C59.906025,40.277233 59.990612,46.636154 60.075195,52.995075 
	C60.023090,55.038338 59.970985,57.081600 59.894428,59.926727 
	C60.638954,64.423599 61.407932,68.118607 61.807037,71.840714 
	C60.603836,70.979103 59.203728,70.189072 59.029034,69.185699 
	C57.882111,62.598255 56.584007,55.992393 56.141712,49.338932 
	C55.647518,41.904701 56.099129,34.411068 55.887886,26.950401 
	C55.859756,25.956978 54.356316,25.005323 53.536098,24.034328 
	C52.693848,24.979017 51.455101,25.794695 51.096508,26.896757 
	C50.459839,28.853428 50.356968,30.983784 49.927513,32.837357 
	C49.455910,32.395741 49.087578,32.158245 48.579845,31.504856 
	C48.296009,28.726725 48.151573,26.364485 48.007133,24.002245 
z"/>
<path fill="#111111" opacity="1.000000" stroke="none" 
	d="
M276.626160,19.337685 
	C276.655426,20.308254 276.684662,21.278824 276.697784,22.874496 
	C276.770905,23.665613 276.860138,23.831629 276.949371,23.997646 
	C274.623383,28.706301 271.360413,30.263268 267.175140,28.637163 
	C263.853485,27.346609 263.434570,24.595188 263.968811,21.632774 
	C264.809418,16.971527 270.128448,16.001938 276.226685,19.303947 
	C276.647095,19.226255 276.626160,19.337685 276.626160,19.337685 
z"/>
<path fill="#E1F6F9" opacity="1.000000" stroke="none" 
	d="
M47.630913,24.069592 
	C48.151573,26.364485 48.296009,28.726725 48.396935,31.950809 
	C48.470234,41.574768 48.587051,50.336876 48.573227,59.498325 
	C48.363583,61.588909 48.284569,63.280159 48.161514,65.319534 
	C48.740601,67.112953 49.363731,68.558235 50.008369,70.360977 
	C50.537136,72.048744 51.044399,73.379059 51.551659,74.709373 
	C46.665680,73.481140 46.461967,68.879662 46.202747,65.509979 
	C45.357670,54.524475 45.181087,43.475872 45.124199,32.449600 
	C45.109921,29.682449 46.506508,26.908022 47.630913,24.069592 
z"/>
<path fill="#E1F6F9" opacity="1.000000" stroke="none" 
	d="
M87.672409,83.250702 
	C88.022194,83.546143 88.020691,83.957382 88.049789,84.677040 
	C84.380844,86.159439 80.745499,87.629402 76.969017,88.448799 
	C67.711792,90.457329 59.983562,87.613037 53.952072,80.323303 
	C53.380001,79.631889 53.305626,78.528694 53.273399,77.211342 
	C55.239113,78.279053 56.931629,79.752083 58.753258,81.449127 
	C59.145454,81.891701 59.408535,82.110275 59.883934,82.592682 
	C61.677380,83.672852 63.258503,84.489189 64.839630,85.305519 
	C70.324974,88.239983 75.848640,87.319321 81.374268,85.454323 
	C83.364700,84.782524 85.339302,84.063812 87.672409,83.250702 
z"/>
<path fill="#3CA4CE" opacity="1.000000" stroke="none" 
	d="
M58.624142,81.225121 
	C56.931629,79.752083 55.239113,78.279053 53.298454,76.836166 
	C52.678417,76.269379 52.306522,75.672447 51.743141,74.892441 
	C51.044399,73.379059 50.537136,72.048744 50.257969,70.163101 
	C49.725891,68.062325 48.965725,66.516861 48.205559,64.971405 
	C48.284569,63.280159 48.363583,61.588909 48.794296,59.472816 
	C49.447182,59.013630 49.749035,58.986919 50.323410,59.247890 
	C52.115490,63.929752 53.419044,68.423355 55.231319,72.701447 
	C56.461311,75.604988 58.405170,78.206116 59.675735,81.000977 
	C59.089180,81.114685 58.856663,81.169907 58.624142,81.225121 
z"/>
<path fill="#E1F3F7" opacity="1.000000" stroke="none" 
	d="
M62.176914,71.813614 
	C61.407932,68.118607 60.638954,64.423599 59.980087,60.357437 
	C60.732231,61.269234 61.687981,62.489948 61.957134,63.846859 
	C62.746658,67.827141 63.925556,71.206802 69.397690,70.807724 
	C70.949234,71.901878 72.063072,73.048279 73.257233,74.497879 
	C69.538490,77.456436 67.051773,73.670441 63.561905,72.863174 
	C63.170910,72.837280 63.167732,72.898865 63.085922,72.636795 
	C62.696331,72.199036 62.388546,72.023338 62.112446,71.860741 
	C62.144131,71.873833 62.176914,71.813614 62.176914,71.813614 
z"/>
<path fill="#F5FAF9" opacity="1.000000" stroke="none" 
	d="
M99.060013,51.990086 
	C98.555809,45.964890 98.410301,39.889175 98.182678,33.041779 
	C98.068878,31.865564 98.037193,31.461025 98.005508,31.056484 
	C98.759933,30.982979 99.514359,30.909473 100.635223,30.940922 
	C101.000984,36.635448 101.102654,42.228237 100.927399,47.812332 
	C100.883766,49.202488 99.945671,50.564575 99.060013,51.990086 
z"/>
<path fill="#E1F3F7" opacity="1.000000" stroke="none" 
	d="
M60.399109,27.932791 
	C59.266815,20.626675 56.364807,19.081581 48.579674,22.258757 
	C49.406715,20.954657 50.639915,18.274271 51.817535,18.298475 
	C54.650471,18.356701 58.069164,18.988441 60.058090,20.742277 
	C61.368004,21.897362 60.603367,25.405077 60.399109,27.932791 
z"/>
<path fill="#E1F3F7" opacity="1.000000" stroke="none" 
	d="
M60.465622,52.905823 
	C59.990612,46.636154 59.906025,40.277233 59.928333,33.461502 
	C62.368362,39.523327 63.076698,46.109276 60.465622,52.905823 
z"/>
<path fill="#F5FAF9" opacity="1.000000" stroke="none" 
	d="
M101.043228,72.837982 
	C99.647530,73.512070 98.235123,73.784996 96.454178,74.058273 
	C96.073090,73.615387 96.060539,73.172157 96.259125,72.244690 
	C96.730255,71.546715 96.886200,71.273567 96.938080,70.941002 
	C97.070595,70.577118 97.203102,70.213226 97.640465,69.507111 
	C98.247704,69.046066 98.561020,68.976379 98.885269,68.955833 
	C99.599022,70.116165 100.312767,71.276489 101.043228,72.837982 
z"/>
<path fill="#F5FAF9" opacity="1.000000" stroke="none" 
	d="
M98.300461,62.800072 
	C98.321144,61.433514 98.341827,60.066959 98.544876,58.328655 
	C102.219429,58.839027 101.407303,60.747334 99.321060,62.851192 
	C98.754456,62.878071 98.300468,62.800072 98.300461,62.800072 
z"/>
<path fill="#F5FAF9" opacity="1.000000" stroke="none" 
	d="
M104.065247,31.487865 
	C105.200752,31.397903 106.399948,31.646097 107.864746,32.051727 
	C107.975403,33.265011 107.820442,34.320854 107.536812,36.253414 
	C106.081093,34.362198 105.105011,33.094109 104.065247,31.487865 
z"/>
<path fill="#F6F6F6" opacity="1.000000" stroke="none" 
	d="
M276.591003,19.218061 
	C276.723938,18.765047 276.797089,18.183527 277.126465,17.904291 
	C277.781067,17.349396 278.576813,16.960987 279.314240,16.503790 
	C279.616669,17.036589 279.919098,17.569382 280.221527,18.102171 
	C279.265533,18.451416 278.309570,18.800665 276.989868,19.243801 
	C276.626160,19.337685 276.647095,19.226255 276.591003,19.218061 
z"/>
<path fill="#9CD1E5" opacity="1.000000" stroke="none" 
	d="
M98.164139,63.196785 
	C98.300468,62.800072 98.754456,62.878071 98.980438,62.928539 
	C99.112434,64.687706 99.018448,66.396400 98.904869,68.530464 
	C98.561020,68.976379 98.247704,69.046066 97.713005,69.224754 
	C97.663063,67.387589 97.845436,65.490547 98.164139,63.196785 
z"/>
<path fill="#F5FAF9" opacity="1.000000" stroke="none" 
	d="
M107.958954,71.711060 
	C107.212631,72.353523 106.427780,72.684372 105.319931,72.951080 
	C105.464508,71.394821 105.586090,69.222664 107.958954,71.711060 
z"/>
<path fill="#F5FAF9" opacity="1.000000" stroke="none" 
	d="
M104.807861,66.204109 
	C105.052452,66.764626 104.998901,67.263763 104.945343,67.762894 
	C104.497543,67.649307 104.049751,67.535721 103.601952,67.422134 
	C103.904541,66.995667 104.207130,66.569199 104.807861,66.204109 
z"/>
<path fill="#E1F6F9" opacity="1.000000" stroke="none" 
	d="
M92.068016,86.655273 
	C92.852783,86.377174 93.698448,86.403496 94.775452,86.652084 
	C94.047501,86.902809 93.088211,86.931259 92.068016,86.655273 
z"/>
<path fill="#F5FAF9" opacity="1.000000" stroke="none" 
	d="
M110.038315,33.438667 
	C110.440735,33.122791 110.886795,33.091404 111.667618,33.082111 
	C111.690590,33.601120 111.378815,34.098038 111.067039,34.594948 
	C110.738678,34.304352 110.410316,34.013756 110.038315,33.438667 
z"/>
<path fill="#F6F6F6" opacity="1.000000" stroke="none" 
	d="
M277.254272,23.980160 
	C276.860138,23.831629 276.770905,23.665613 276.816162,23.250912 
	C277.403503,22.997883 277.856354,22.993540 278.654602,22.994535 
	C279.000000,22.999874 279.014648,23.011328 279.014648,23.011326 
	C278.529480,23.328442 278.044312,23.645559 277.254272,23.980160 
z"/>
<path fill="#F6F6F6" opacity="1.000000" stroke="none" 
	d="
M277.449432,28.532179 
	C277.415894,28.475992 277.482971,28.588366 277.449432,28.532179 
z"/>
<path fill="#F6F6F6" opacity="1.000000" stroke="none" 
	d="
M279.465485,25.447041 
	C279.523071,25.412077 279.407898,25.482006 279.465485,25.447041 
z"/>
<path fill="#F6F6F6" opacity="1.000000" stroke="none" 
	d="
M278.994263,22.992599 
	C279.089233,22.955128 279.189911,22.924932 279.152649,22.953032 
	C279.014648,23.011328 279.000000,22.999874 278.994263,22.992599 
z"/>
<path fill="#F7F7F7" opacity="1.000000" stroke="none" 
	d="
M356.436249,43.290710 
	C363.357758,43.599541 365.695740,45.272377 366.496796,51.555988 
	C366.969208,55.261868 366.576294,59.174911 365.967468,62.895775 
	C365.296600,66.995552 362.496826,69.070442 358.206268,69.146500 
	C353.976929,69.221489 350.655090,67.442474 350.107849,63.348576 
	C349.463226,58.525658 349.408630,53.435963 350.292145,48.683926 
	C350.675934,46.619625 354.039581,45.109356 356.436249,43.290710 
z"/>
<path fill="#EEF6F6" opacity="1.000000" stroke="none" 
	d="
M86.900841,62.995480 
	C86.867775,63.404442 86.834717,63.813404 86.453476,64.654770 
	C85.794876,66.088646 85.484459,67.090118 85.174042,68.091583 
	C85.174042,68.091583 85.150452,68.135887 84.835083,68.077408 
	C84.113571,67.962074 83.707413,67.905220 83.301262,67.848358 
	C77.078857,58.730373 75.583679,49.312469 81.815842,39.597115 
	C82.938057,37.847691 84.791695,36.567451 86.593201,35.396919 
	C86.886116,44.813988 86.893478,53.904736 86.900841,62.995480 
z"/>
<path fill="#9CD1E5" opacity="1.000000" stroke="none" 
	d="
M87.202759,62.708073 
	C86.893478,53.904736 86.886116,44.813988 86.922729,35.299835 
	C90.385178,33.551472 93.803650,32.226517 97.613815,30.979027 
	C98.037193,31.461025 98.068878,31.865564 98.086121,32.573120 
	C87.188782,34.129272 87.548874,36.572483 87.820946,43.596409 
	C88.063469,49.857685 87.636299,56.144897 87.202759,62.708073 
z"/>
<path fill="#9CD1E5" opacity="1.000000" stroke="none" 
	d="
M83.168549,68.215637 
	C83.707413,67.905220 84.113571,67.962074 84.819046,68.096710 
	C84.576721,68.788025 84.035065,69.401558 83.160461,70.072830 
	C82.896957,69.614685 82.966400,69.098801 83.168549,68.215637 
z"/>
<path fill="#2CA7E3" opacity="1.000000" stroke="none" 
	d="
M60.029781,80.942490 
	C58.405170,78.206116 56.461311,75.604988 55.231319,72.701447 
	C53.419044,68.423355 52.115490,63.929752 50.311432,58.782974 
	C50.028667,49.705830 50.029724,41.373653 50.030785,33.041477 
	C50.356968,30.983784 50.459839,28.853428 51.096508,26.896757 
	C51.455101,25.794695 52.693848,24.979017 53.536098,24.034328 
	C54.356316,25.005323 55.859756,25.956978 55.887886,26.950401 
	C56.099129,34.411068 55.647518,41.904701 56.141712,49.338932 
	C56.584007,55.992393 57.882111,62.598255 59.029034,69.185699 
	C59.203728,70.189072 60.603836,70.979103 61.807037,71.840714 
	C62.176914,71.813614 62.144131,71.873833 62.197079,72.121277 
	C62.555927,72.545433 62.861832,72.722153 63.167732,72.898865 
	C63.167732,72.898865 63.170910,72.837280 63.198685,72.822205 
	C64.363487,74.191376 65.234360,76.318855 66.681503,76.837051 
	C74.949623,79.797714 83.233078,77.409683 87.913155,70.221123 
	C89.569420,67.677116 89.660614,63.939831 89.928055,60.702850 
	C90.458710,54.279785 90.412804,47.804893 91.074333,41.399876 
	C91.232307,39.870289 93.234383,38.531162 94.388283,37.104435 
	C94.681023,38.629292 95.132210,40.143341 95.237053,41.681007 
	C95.562477,46.453758 95.892555,51.233326 95.967804,56.014233 
	C96.068489,62.411915 95.596275,68.209953 90.960121,73.887634 
	C88.699867,76.655655 87.174156,79.345154 83.801247,81.417625 
	C77.979034,84.995049 71.942139,83.638924 65.313477,83.682785 
	C63.481247,82.889648 62.273911,82.400986 60.943558,81.712341 
	C60.618809,81.257942 60.362175,81.084969 60.039566,80.984100 
	C60.028484,80.974754 60.029781,80.942490 60.029781,80.942490 
z"/>
<path fill="#54ADD6" opacity="1.000000" stroke="none" 
	d="
M61.066574,81.912315 
	C62.273911,82.400986 63.481247,82.889648 64.847885,83.677078 
	C64.986755,84.198135 64.966339,84.420410 64.892776,84.974106 
	C63.258503,84.489189 61.677380,83.672852 59.985939,82.490036 
	C59.875629,82.123550 60.077309,81.921982 60.324783,81.935692 
	C60.572258,81.949402 61.066574,81.912315 61.066574,81.912315 
z"/>
<path fill="#9CD1E5" opacity="1.000000" stroke="none" 
	d="
M85.465004,67.938492 
	C85.484459,67.090118 85.794876,66.088646 86.410095,64.959686 
	C86.395264,65.816589 86.075615,66.800987 85.465004,67.938492 
z"/>
<path fill="#9CD1E5" opacity="1.000000" stroke="none" 
	d="
M96.684532,71.025101 
	C96.886200,71.273567 96.730255,71.546715 96.283882,71.911942 
	C96.208664,71.745354 96.319824,71.427277 96.684532,71.025101 
z"/>
<path fill="#54ADD6" opacity="1.000000" stroke="none" 
	d="
M49.927513,32.837357 
	C50.029724,41.373653 50.028667,49.705830 50.039589,58.502922 
	C49.749035,58.986919 49.447182,59.013630 48.924934,59.073479 
	C48.587051,50.336876 48.470234,41.574768 48.536331,32.366703 
	C49.087578,32.158245 49.455910,32.395741 49.927513,32.837357 
z"/>
<path fill="#54ADD6" opacity="1.000000" stroke="none" 
	d="
M48.161514,65.319534 
	C48.965725,66.516861 49.725891,68.062325 50.236462,69.805649 
	C49.363731,68.558235 48.740601,67.112953 48.161514,65.319534 
z"/>
<path fill="#54ADD6" opacity="1.000000" stroke="none" 
	d="
M58.753258,81.449127 
	C58.856663,81.169907 59.089180,81.114685 59.675735,81.000977 
	C60.029781,80.942490 60.028484,80.974754 60.034019,81.216560 
	C60.039555,81.458366 60.077309,81.921982 60.077309,81.921982 
	C60.077309,81.921982 59.875629,82.123550 59.773621,82.226196 
	C59.408535,82.110275 59.145454,81.891701 58.753258,81.449127 
z"/>
<path fill="#3CA4CE" opacity="1.000000" stroke="none" 
	d="
M63.085922,72.636795 
	C62.861832,72.722153 62.555927,72.545433 62.165394,72.108185 
	C62.388546,72.023338 62.696331,72.199036 63.085922,72.636795 
z"/>
<path fill="#3CA4CE" opacity="1.000000" stroke="none" 
	d="
M60.324783,81.935692 
	C60.077309,81.921982 60.039555,81.458366 60.045097,81.225906 
	C60.362175,81.084969 60.618809,81.257942 60.943558,81.712341 
	C61.066574,81.912315 60.572258,81.949402 60.324783,81.935692 
z"/>
</svg>